<svg height="2078" width="720" xmlns="http://www.w3.org/2000/svg">
<rect height="2078" fill="#555" width="720"></rect>
<text fill="#7f7" font-family="Courier New" font-size="12" xml:space="preserve">
<tspan x="10" y="26">7 megabytes installed</tspan>
<tspan x="10" y="42"></tspan>
<tspan x="10" y="58">node_modules</tspan>
<tspan x="10" y="74">└─┬ gulp-plumber-notifier@0.0.3 </tspan>
<tspan x="10" y="90">  ├── colors@1.1.2 </tspan>
<tspan x="10" y="106">  ├─┬ dateformat@1.0.12 </tspan>
<tspan x="10" y="122">  │ ├── get-stdin@4.0.1 </tspan>
<tspan x="10" y="138">  │ └─┬ meow@3.7.0 </tspan>
<tspan x="10" y="154">  │   ├─┬ camelcase-keys@2.1.0 </tspan>
<tspan x="10" y="170">  │   │ └── camelcase@2.1.1 </tspan>
<tspan x="10" y="186">  │   ├── decamelize@1.2.0 </tspan>
<tspan x="10" y="202">  │   ├─┬ loud-rejection@1.6.0 </tspan>
<tspan x="10" y="218">  │   │ ├─┬ currently-unhandled@0.4.1 </tspan>
<tspan x="10" y="234">  │   │ │ └── array-find-index@1.0.2 </tspan>
<tspan x="10" y="250">  │   │ └── signal-exit@3.0.2 </tspan>
<tspan x="10" y="266">  │   ├── map-obj@1.0.1 </tspan>
<tspan x="10" y="282">  │   ├─┬ normalize-package-data@2.3.8 </tspan>
<tspan x="10" y="298">  │   │ ├── hosted-git-info@2.4.2 </tspan>
<tspan x="10" y="314">  │   │ ├─┬ is-builtin-module@1.0.0 </tspan>
<tspan x="10" y="330">  │   │ │ └── builtin-modules@1.1.1 </tspan>
<tspan x="10" y="346">  │   │ └─┬ validate-npm-package-license@3.0.1 </tspan>
<tspan x="10" y="362">  │   │   ├─┬ spdx-correct@1.0.2 </tspan>
<tspan x="10" y="378">  │   │   │ └── spdx-license-ids@1.2.2 </tspan>
<tspan x="10" y="394">  │   │   └── spdx-expression-parse@1.0.4 </tspan>
<tspan x="10" y="410">  │   ├── object-assign@4.1.1 </tspan>
<tspan x="10" y="426">  │   ├─┬ read-pkg-up@1.0.1 </tspan>
<tspan x="10" y="442">  │   │ ├─┬ find-up@1.1.2 </tspan>
<tspan x="10" y="458">  │   │ │ ├── path-exists@2.1.0 </tspan>
<tspan x="10" y="474">  │   │ │ └─┬ pinkie-promise@2.0.1 </tspan>
<tspan x="10" y="490">  │   │ │   └── pinkie@2.0.4 </tspan>
<tspan x="10" y="506">  │   │ └─┬ read-pkg@1.1.0 </tspan>
<tspan x="10" y="522">  │   │   ├─┬ load-json-file@1.1.0 </tspan>
<tspan x="10" y="538">  │   │   │ ├── graceful-fs@4.1.11 </tspan>
<tspan x="10" y="554">  │   │   │ ├─┬ parse-json@2.2.0 </tspan>
<tspan x="10" y="570">  │   │   │ │ └─┬ error-ex@1.3.1 </tspan>
<tspan x="10" y="586">  │   │   │ │   └── is-arrayish@0.2.1 </tspan>
<tspan x="10" y="602">  │   │   │ ├── pify@2.3.0 </tspan>
<tspan x="10" y="618">  │   │   │ └─┬ strip-bom@2.0.0 </tspan>
<tspan x="10" y="634">  │   │   │   └── is-utf8@0.2.1 </tspan>
<tspan x="10" y="650">  │   │   └── path-type@1.1.0 </tspan>
<tspan x="10" y="666">  │   ├─┬ redent@1.0.0 </tspan>
<tspan x="10" y="682">  │   │ ├─┬ indent-string@2.1.0 </tspan>
<tspan x="10" y="698">  │   │ │ └─┬ repeating@2.0.1 </tspan>
<tspan x="10" y="714">  │   │ │   └─┬ is-finite@1.0.2 </tspan>
<tspan x="10" y="730">  │   │ │     └── number-is-nan@1.0.1 </tspan>
<tspan x="10" y="746">  │   │ └── strip-indent@1.0.1 </tspan>
<tspan x="10" y="762">  │   └── trim-newlines@1.0.0 </tspan>
<tspan x="10" y="778">  ├─┬ gulp-plumber@1.1.0 </tspan>
<tspan x="10" y="794">  │ ├─┬ gulp-util@3.0.8 </tspan>
<tspan x="10" y="810">  │ │ ├── array-differ@1.0.0 </tspan>
<tspan x="10" y="826">  │ │ ├── array-uniq@1.0.3 </tspan>
<tspan x="10" y="842">  │ │ ├── beeper@1.1.1 </tspan>
<tspan x="10" y="858">  │ │ ├─┬ chalk@1.1.3 </tspan>
<tspan x="10" y="874">  │ │ │ ├── ansi-styles@2.2.1 </tspan>
<tspan x="10" y="890">  │ │ │ ├── escape-string-regexp@1.0.5 </tspan>
<tspan x="10" y="906">  │ │ │ ├─┬ has-ansi@2.0.0 </tspan>
<tspan x="10" y="922">  │ │ │ │ └── ansi-regex@2.1.1 </tspan>
<tspan x="10" y="938">  │ │ │ ├── strip-ansi@3.0.1 </tspan>
<tspan x="10" y="954">  │ │ │ └── supports-color@2.0.0 </tspan>
<tspan x="10" y="970">  │ │ ├── dateformat@2.0.0 </tspan>
<tspan x="10" y="986">  │ │ ├─┬ fancy-log@1.3.0 </tspan>
<tspan x="10" y="1002">  │ │ │ └── time-stamp@1.0.1 </tspan>
<tspan x="10" y="1018">  │ │ ├─┬ gulplog@1.0.0 </tspan>
<tspan x="10" y="1034">  │ │ │ └── glogg@1.0.0 </tspan>
<tspan x="10" y="1050">  │ │ ├─┬ has-gulplog@0.1.0 </tspan>
<tspan x="10" y="1066">  │ │ │ └── sparkles@1.0.0 </tspan>
<tspan x="10" y="1082">  │ │ ├── lodash._reescape@3.0.0 </tspan>
<tspan x="10" y="1098">  │ │ ├── lodash._reevaluate@3.0.0 </tspan>
<tspan x="10" y="1114">  │ │ ├── lodash._reinterpolate@3.0.0 </tspan>
<tspan x="10" y="1130">  │ │ ├─┬ lodash.template@3.6.2 </tspan>
<tspan x="10" y="1146">  │ │ │ ├── lodash._basecopy@3.0.1 </tspan>
<tspan x="10" y="1162">  │ │ │ ├── lodash._basetostring@3.0.1 </tspan>
<tspan x="10" y="1178">  │ │ │ ├── lodash._basevalues@3.0.0 </tspan>
<tspan x="10" y="1194">  │ │ │ ├── lodash._isiterateecall@3.0.9 </tspan>
<tspan x="10" y="1210">  │ │ │ ├─┬ lodash.escape@3.2.0 </tspan>
<tspan x="10" y="1226">  │ │ │ │ └── lodash._root@3.0.1 </tspan>
<tspan x="10" y="1242">  │ │ │ ├─┬ lodash.keys@3.1.2 </tspan>
<tspan x="10" y="1258">  │ │ │ │ ├── lodash._getnative@3.9.1 </tspan>
<tspan x="10" y="1274">  │ │ │ │ └── lodash.isarguments@3.1.0 </tspan>
<tspan x="10" y="1290">  │ │ │ ├── lodash.restparam@3.6.1 </tspan>
<tspan x="10" y="1306">  │ │ │ └── lodash.templatesettings@3.1.1 </tspan>
<tspan x="10" y="1322">  │ │ ├─┬ multipipe@0.1.2 </tspan>
<tspan x="10" y="1338">  │ │ │ └─┬ duplexer2@0.0.2 </tspan>
<tspan x="10" y="1354">  │ │ │   └─┬ readable-stream@1.1.14 </tspan>
<tspan x="10" y="1370">  │ │ │     ├── isarray@0.0.1 </tspan>
<tspan x="10" y="1386">  │ │ │     └── string_decoder@0.10.31 </tspan>
<tspan x="10" y="1402">  │ │ ├── object-assign@3.0.0 </tspan>
<tspan x="10" y="1418">  │ │ ├── replace-ext@0.0.1 </tspan>
<tspan x="10" y="1434">  │ │ └─┬ vinyl@0.5.3 </tspan>
<tspan x="10" y="1450">  │ │   ├── clone@1.0.2 </tspan>
<tspan x="10" y="1466">  │ │   └── clone-stats@0.0.1 </tspan>
<tspan x="10" y="1482">  │ └─┬ through2@2.0.3 </tspan>
<tspan x="10" y="1498">  │   ├─┬ readable-stream@2.2.9 </tspan>
<tspan x="10" y="1514">  │   │ ├── buffer-shims@1.0.0 </tspan>
<tspan x="10" y="1530">  │   │ ├── core-util-is@1.0.2 </tspan>
<tspan x="10" y="1546">  │   │ ├── inherits@2.0.3 </tspan>
<tspan x="10" y="1562">  │   │ ├── isarray@1.0.0 </tspan>
<tspan x="10" y="1578">  │   │ ├── process-nextick-args@1.0.7 </tspan>
<tspan x="10" y="1594">  │   │ ├── string_decoder@1.0.0 </tspan>
<tspan x="10" y="1610">  │   │ └── util-deprecate@1.0.2 </tspan>
<tspan x="10" y="1626">  │   └── xtend@4.0.1 </tspan>
<tspan x="10" y="1642">  └─┬ node-notifier@4.6.1 </tspan>
<tspan x="10" y="1658">    ├─┬ cli-usage@0.1.4 </tspan>
<tspan x="10" y="1674">    │ ├── marked@0.3.6 </tspan>
<tspan x="10" y="1690">    │ └─┬ marked-terminal@1.7.0 </tspan>
<tspan x="10" y="1706">    │   ├─┬ cardinal@1.0.0 </tspan>
<tspan x="10" y="1722">    │   │ ├── ansicolors@0.2.1 </tspan>
<tspan x="10" y="1738">    │   │ └─┬ redeyed@1.0.1 </tspan>
<tspan x="10" y="1754">    │   │   └── esprima@3.0.0 </tspan>
<tspan x="10" y="1770">    │   ├─┬ cli-table@0.3.1 </tspan>
<tspan x="10" y="1786">    │   │ └── colors@1.0.3 </tspan>
<tspan x="10" y="1802">    │   ├── lodash.assign@4.2.0 </tspan>
<tspan x="10" y="1818">    │   └─┬ node-emoji@1.5.1 </tspan>
<tspan x="10" y="1834">    │     └── string.prototype.codepointat@0.2.0 </tspan>
<tspan x="10" y="1850">    ├── growly@1.3.0 </tspan>
<tspan x="10" y="1866">    ├─┬ lodash.clonedeep@3.0.2 </tspan>
<tspan x="10" y="1882">    │ ├─┬ lodash._baseclone@3.3.0 </tspan>
<tspan x="10" y="1898">    │ │ ├── lodash._arraycopy@3.0.0 </tspan>
<tspan x="10" y="1914">    │ │ ├── lodash._arrayeach@3.0.0 </tspan>
<tspan x="10" y="1930">    │ │ ├── lodash._baseassign@3.2.0 </tspan>
<tspan x="10" y="1946">    │ │ ├── lodash._basefor@3.0.3 </tspan>
<tspan x="10" y="1962">    │ │ └── lodash.isarray@3.0.4 </tspan>
<tspan x="10" y="1978">    │ └── lodash._bindcallback@3.0.1 </tspan>
<tspan x="10" y="1994">    ├── minimist@1.2.0 </tspan>
<tspan x="10" y="2010">    ├── semver@5.3.0 </tspan>
<tspan x="10" y="2026">    ├── shellwords@0.1.0 </tspan>
<tspan x="10" y="2042">    └─┬ which@1.2.14 </tspan>
<tspan x="10" y="2058">      └── isexe@2.0.0</tspan>
</text>
</svg>
